<svg xmlns="http://www.w3.org/2000/svg" width="1em" height="1em" viewBox="0 0 1000 350"><path d="M0 0h1000v175H0zm0 350h1000v175H0z" style="fill:#00923f;fill-opacity:1;stroke:none;stroke-opacity:1"></path><path d="M0 175h1000v175H0zm0 350h1000v175H0z" style="fill:#f8c300;fill-opacity:1;stroke:none;stroke-opacity:1"></path><path d="M0 0h350v350H0z" style="fill:#28166f;fill-opacity:1;stroke:none;stroke-opacity:1"></path><path d="M222.023 239.721 175 205.557l-47.023 34.164 17.961-55.278-47.023-34.164h58.124L175 95l17.961 55.279h58.124l-47.023 34.164zM83.51 322.361 60 305.279 36.489 322.36l8.98-27.64-23.511-17.082h29.061L60 250l8.98 27.64h29.062L74.531 294.72zm230-230L290 75.279 266.489 92.36l8.98-27.64-23.511-17.082h29.061L290 20l8.98 27.64h29.062L304.531 64.72zm-230 0L60 75.279 36.489 92.36l8.98-27.64L21.958 47.64h29.061L60 20l8.98 27.64h29.062L74.531 64.72zm230 230L290 305.279l-23.511 17.082 8.98-27.64-23.511-17.082h29.061L290 250l8.98 27.64h29.062l-23.511 17.081z" style="fill:#fff;fill-opacity:1;stroke:none;stroke-opacity:1"></path></svg>